<svg xmlns="http://www.w3.org/2000/svg" width="701.9854016478553" height="426.64233584772114" fill="none" style=""><rect id="backgroundrect" width="100%" height="100%" x="0" y="0" fill="none" stroke="none"/>




<g class="currentLayer" style=""><title>Layer 1</title><path d="M236.87591272592545,9.072992861270912 H469.87591272592545 C445.79791272592547,11.929992861270904 436.32591272592543,17.349992861270906 426.87591272592545,34.072992861270905 L400.87591272592545,81.5729928612709 L351.37591272592545,165.0729928612709 L306.37591272592545,87.5729928612709 L277.87591272592545,37.572992861270905 C269.88091272592544,20.390492861270907 262.8789127259255,13.887492861270914 236.87591272592545,9.072992861270912 z" fill="#FF8A00" fill-opacity="0.752" id="svg_1" class=""/><path d="M236.87591272592545,9.072992861270912 H469.87591272592545 C445.79791272592547,11.929992861270904 436.32591272592543,17.349992861270906 426.87591272592545,34.072992861270905 L400.87591272592545,81.5729928612709 L351.37591272592545,165.0729928612709 L306.37591272592545,87.5729928612709 L277.87591272592545,37.572992861270905 C269.88091272592544,20.390492861270907 262.8789127259255,13.887492861270914 236.87591272592545,9.072992861270912 z" fill="#FF8A00" fill-opacity="0.752" class="" id="svg_5"/><path d="M206.10091272592547,28.572992861270905 C221.11191272592544,2.5729928612709045 258.63991272592546,2.5729928612709045 273.6509127259254,28.572992861270905 L465.0429127259255,360.0729928612709 C480.05391272592544,386.0729928612709 461.28991272592543,418.5729928612709 431.26791272592544,418.5729928612709 H48.48391272592545 C18.46211272592545,418.5729928612709 -0.30178727407455347,386.0729928612709 14.709312725925443,360.0729928612709 L206.10091272592547,28.572992861270905 z" fill="#F93A3A" fill-opacity="0.888" class="" id="svg_6"/><path d="M430.10091272592547,28.572992861270905 C445.11191272592544,2.5729928612709045 482.63991272592546,2.5729928612709045 497.6509127259254,28.572992861270905 L689.0429127259255,360.0729928612709 C704.0539127259254,386.0729928612709 685.2899127259254,418.5729928612709 655.2679127259255,418.5729928612709 H272.48391272592545 C242.46191272592546,418.5729928612709 223.69791272592545,386.0729928612709 238.70891272592547,360.0729928612709 L430.10091272592547,28.572992861270905 z" fill="#1C6EE9" fill-opacity="0.888" class="" id="svg_7"/><path d="M236.87591272592545,363.5729928612709 L243.60791272592547,350.0729928612709 L297.87591272592545,257.5729928612709 L351.6079127259255,165.0729928612709 L466.87591272592545,363.0729928612709 C473.4709127259255,396.85799286127093 465.36191272592544,408.2499928612709 435.15291272592543,418.5729928612709 H269.37591272592545 L260.87591272592545,417.0729928612709 L256.37591272592545,415.0729928612709 L254.37591272592545,414.0729928612709 L252.2539127259255,412.9809928612709 L247.87591272592545,410.0729928612709 L246.37591272592545,408.5729928612709 L244.87591272592545,407.0729928612709 L241.87591272592545,404.0729928612709 L239.37591272592545,400.0729928612709 L235.37591272592545,392.5729928612709 L233.37591272592545,384.0729928612709 V378.0729928612709 L233.87591272592545,373.0729928612709 L236.87591272592545,363.5729928612709 z" fill="#9F1FED" fill-opacity="0.5" class="" id="svg_8"/><path d="M206.10091272592547,28.572992861270905 C221.11191272592544,2.5729928612709045 258.63991272592546,2.5729928612709045 273.6509127259254,28.572992861270905 L465.0429127259255,360.0729928612709 C480.05391272592544,386.0729928612709 461.28991272592543,418.5729928612709 431.26791272592544,418.5729928612709 H48.48391272592545 C18.46211272592545,418.5729928612709 -0.30178727407455347,386.0729928612709 14.709312725925443,360.0729928612709 L206.10091272592547,28.572992861270905 z" fill="#F93A3A" fill-opacity="0.888" id="svg_2" class=""/><path d="M430.10091272592547,28.572992861270905 C445.11191272592544,2.5729928612709045 482.63991272592546,2.5729928612709045 497.6509127259254,28.572992861270905 L689.0429127259255,360.0729928612709 C704.0539127259254,386.0729928612709 685.2899127259254,418.5729928612709 655.2679127259255,418.5729928612709 H272.48391272592545 C242.46191272592546,418.5729928612709 223.69791272592545,386.0729928612709 238.70891272592547,360.0729928612709 L430.10091272592547,28.572992861270905 z" fill="#1C6EE9" fill-opacity="0.888" id="svg_3" class=""/><path d="M236.87591272592545,363.5729928612709 L243.60791272592547,350.0729928612709 L297.87591272592545,257.5729928612709 L351.6079127259255,165.0729928612709 L466.87591272592545,363.0729928612709 C473.4709127259255,396.85799286127093 465.36191272592544,408.2499928612709 435.15291272592543,418.5729928612709 H269.37591272592545 L260.87591272592545,417.0729928612709 L256.37591272592545,415.0729928612709 L254.37591272592545,414.0729928612709 L252.2539127259255,412.9809928612709 L247.87591272592545,410.0729928612709 L246.37591272592545,408.5729928612709 L244.87591272592545,407.0729928612709 L241.87591272592545,404.0729928612709 L239.37591272592545,400.0729928612709 L235.37591272592545,392.5729928612709 L233.37591272592545,384.0729928612709 V378.0729928612709 L233.87591272592545,373.0729928612709 L236.87591272592545,363.5729928612709 z" fill="#9F1FED" fill-opacity="0.5" id="svg_4" class=""/></g></svg>